<svg xmlns:xlink="http://www.w3.org/1999/xlink"  xmlns="http://www.w3.org/2000/svg" width="196" height="30" viewBox="0 0 196 30" fill="none">
<g clip-path="url(#clip0_300_618)">
<path d="M10.3873 13.9739L9.70752 29.9431H15.1109L12.9792 9.99544L10.3873 13.9739Z" fill="#0B8968"/>
<path d="M5.19449 21.9592L2.84478 25.5662L0 29.9431H5.72438L7.54571 18.3388L5.19449 21.9592Z" fill="#0B8968"/>
<path d="M16.6919 4.42771L19.0885 29.9431H25.9454L19.5609 0.0358467L16.6919 4.42771Z" fill="#0B8968"/>
<path d="M16.6919 4.42771L29.4533 29.9431H39.0792L19.5609 0.0358467L16.6919 4.42771Z" fill="#07F48E"/>
<path d="M2.84478 25.5662L0 29.9431H5.72438L2.84478 25.5662Z" fill="#07F48E"/>
<path d="M10.3877 13.9739L19.0886 29.9431H25.9454L13.0069 9.952L10.3877 13.9739Z" fill="#07F48E"/>
<path d="M5.19434 21.9592L9.70753 29.9431H15.1109L7.56827 18.3043L5.19434 21.9592Z" fill="#07F48E"/>
<path d="M102.981 -0.00309753H99.0068V29.9146H102.981H104.969H118.23V24.7424H104.969V16.5802H117.365V11.4933H104.969V5.16918H118.23V-0.00309753H104.969H102.981Z" fill="white"/>
<path d="M121.41 5.52269H129.531V29.9266H135.708V5.52269H143.873V0.0103836H121.41V5.52269Z" fill="white"/>
<path d="M169.486 0.0103836H147.023V5.52269H155.144V29.9266H161.321V5.52269H169.486V0.0103836Z" fill="white"/>
<path d="M44.5611 29.9686H51.8827L54.5367 24.2615H65.0377L67.7145 29.9686H75.077L59.8175 -0.0210724L44.5596 29.9686H44.5611ZM63.6555 19.6884H55.9478L59.819 11.5533L63.6555 19.6884Z" fill="white"/>
<path d="M188.901 29.9686H196.264L181.007 -0.0210724L165.75 29.9686H173.071L175.725 24.2615H186.226L188.903 29.9686H188.901ZM184.844 19.6884H177.136L181.007 11.5533L184.844 19.6884Z" fill="white"/>
<path d="M81.1602 16.9667L73.2406 0.0103836H66.4912L81.1602 30L95.8277 0.0103836H89.0784L81.1602 16.9667Z" fill="white"/>
</g>
<defs>
<clipPath id="clip0_300_618">
<rect width="196" height="30" fill="white"/>
</clipPath>
</defs>
</svg>